<svg xmlns="http://www.w3.org/2000/svg" viewBox="0 0 520 520"><rect width="520" height="520" rx="100" fill="#fff"/><circle cx="260" cy="205" r="108" fill="#080A12"/><path d="M155 119l50-56 34 76zM365 119l-50-56-34 76z" fill="#080A12"/><path d="M138 200h244" stroke="#202633" stroke-width="45" stroke-linecap="round"/><circle cx="220" cy="195" r="20" fill="#fff"/><circle cx="300" cy="195" r="20" fill="#fff"/><circle cx="227" cy="200" r="8" fill="#080A12"/><circle cx="293" cy="200" r="8" fill="#080A12"/><path d="M252 242q8 12 18 0" stroke="#fff" stroke-width="9" stroke-linecap="round"/><path d="M145 220q-52 0-86-22M145 252q-50 10-82 35M375 220q52 0 86-22M375 252q50 10 82 35" stroke="#080A12" stroke-width="13" stroke-linecap="round"/><text x="82" y="430" font-family="Arial,sans-serif" font-size="70" font-weight="900" fill="#080A12">Ninja</text><text x="292" y="430" font-family="Arial,sans-serif" font-size="70" font-weight="900" fill="#5B45F5">Pet</text></svg>